<mxfile host="app.diagrams.net" modified="2022-12-06T01:12:35.843Z" agent="5.0 (Macintosh; Intel Mac OS X 10_15_7) AppleWebKit/537.36 (KHTML, like Gecko) Chrome/107.0.0.0 Safari/537.36" version="20.6.0" etag="1i5KtqaWWEVtzjwGm0nC" type="github">
  <diagram id="KPe_2TEdzHbe2aa5FvCG" name="Page-1">
    <mxGraphModel dx="946" dy="536" grid="1" gridSize="10" guides="1" tooltips="1" connect="1" arrows="1" fold="1" page="1" pageScale="1" pageWidth="850" pageHeight="1100" math="0" shadow="0">
      <root>
        <mxCell id="0" />
        <mxCell id="1" parent="0" />
        <mxCell id="d-P0U7Se0oW0T53Lc5zN-6" value="" style="edgeStyle=orthogonalEdgeStyle;rounded=0;orthogonalLoop=1;jettySize=auto;html=1;fontSize=12;" edge="1" parent="1" source="d-P0U7Se0oW0T53Lc5zN-1" target="d-P0U7Se0oW0T53Lc5zN-5">
          <mxGeometry relative="1" as="geometry" />
        </mxCell>
        <mxCell id="d-P0U7Se0oW0T53Lc5zN-1" value="00:00,192.186.1.33,url,40&lt;br&gt;01:00,192.168.1.23,url,30&lt;br&gt;02:00,192.168.1.23,url,35&lt;br&gt;03:00,192.168.1.73,url,50&lt;br&gt;04:00,192.186.1.33,url,60" style="rounded=0;whiteSpace=wrap;html=1;" vertex="1" parent="1">
          <mxGeometry x="120" y="190" width="170" height="100" as="geometry" />
        </mxCell>
        <mxCell id="d-P0U7Se0oW0T53Lc5zN-8" value="" style="edgeStyle=orthogonalEdgeStyle;rounded=0;orthogonalLoop=1;jettySize=auto;html=1;fontSize=12;" edge="1" parent="1" source="d-P0U7Se0oW0T53Lc5zN-2" target="d-P0U7Se0oW0T53Lc5zN-7">
          <mxGeometry relative="1" as="geometry" />
        </mxCell>
        <mxCell id="d-P0U7Se0oW0T53Lc5zN-2" value="05:00,192.168.1.73,url,40&lt;br&gt;06:00,192.157.1.73,url,30&lt;br&gt;07:00,192.186.1.33,url,35&lt;br&gt;08:00,192.138.1.83,url,50&lt;br&gt;09:00,192.138.1.83,url,60" style="rounded=0;whiteSpace=wrap;html=1;" vertex="1" parent="1">
          <mxGeometry x="120" y="300" width="170" height="90" as="geometry" />
        </mxCell>
        <mxCell id="d-P0U7Se0oW0T53Lc5zN-4" value="&lt;b&gt;Input&lt;/b&gt;" style="text;html=1;strokeColor=none;fillColor=none;align=center;verticalAlign=middle;whiteSpace=wrap;rounded=0;fontSize=12;" vertex="1" parent="1">
          <mxGeometry x="175" y="160" width="61" height="30" as="geometry" />
        </mxCell>
        <mxCell id="d-P0U7Se0oW0T53Lc5zN-12" value="" style="edgeStyle=orthogonalEdgeStyle;rounded=0;orthogonalLoop=1;jettySize=auto;html=1;fontSize=12;" edge="1" parent="1" source="d-P0U7Se0oW0T53Lc5zN-5" target="d-P0U7Se0oW0T53Lc5zN-11">
          <mxGeometry relative="1" as="geometry" />
        </mxCell>
        <mxCell id="d-P0U7Se0oW0T53Lc5zN-5" value="((Canada, Edmonton), 40)&lt;br&gt;((UK, London), 30)&lt;br&gt;((UK, London), 35)&lt;br&gt;((Canada, Calgary), 50)&lt;br&gt;((Canada, Edmonton), 60)" style="rounded=0;whiteSpace=wrap;html=1;" vertex="1" parent="1">
          <mxGeometry x="370" y="190" width="170" height="100" as="geometry" />
        </mxCell>
        <mxCell id="d-P0U7Se0oW0T53Lc5zN-14" value="" style="edgeStyle=orthogonalEdgeStyle;rounded=0;orthogonalLoop=1;jettySize=auto;html=1;fontSize=12;" edge="1" parent="1" source="d-P0U7Se0oW0T53Lc5zN-7" target="d-P0U7Se0oW0T53Lc5zN-13">
          <mxGeometry relative="1" as="geometry" />
        </mxCell>
        <mxCell id="d-P0U7Se0oW0T53Lc5zN-7" value="((Canada, Calgary), 40)&lt;br&gt;((US, Buffalo), 30)&lt;br&gt;((Canada, Edmonton), 35)&lt;br&gt;((Qatar, Doha), 50)&lt;br&gt;((Qatar, Doha), 60)" style="rounded=0;whiteSpace=wrap;html=1;" vertex="1" parent="1">
          <mxGeometry x="370" y="300" width="170" height="90" as="geometry" />
        </mxCell>
        <mxCell id="d-P0U7Se0oW0T53Lc5zN-10" value="&lt;b&gt;Map&lt;/b&gt;" style="text;html=1;strokeColor=none;fillColor=none;align=center;verticalAlign=middle;whiteSpace=wrap;rounded=0;fontSize=12;" vertex="1" parent="1">
          <mxGeometry x="425" y="160" width="61" height="30" as="geometry" />
        </mxCell>
        <mxCell id="d-P0U7Se0oW0T53Lc5zN-21" value="" style="edgeStyle=orthogonalEdgeStyle;rounded=0;orthogonalLoop=1;jettySize=auto;html=1;fontSize=12;" edge="1" parent="1" source="d-P0U7Se0oW0T53Lc5zN-11" target="d-P0U7Se0oW0T53Lc5zN-20">
          <mxGeometry relative="1" as="geometry" />
        </mxCell>
        <mxCell id="d-P0U7Se0oW0T53Lc5zN-11" value="((Canada, Edmonton), 100)&lt;br&gt;((UK, London), 65)&lt;br&gt;((Canada, Calgary), 50)&lt;br&gt;" style="rounded=0;whiteSpace=wrap;html=1;" vertex="1" parent="1">
          <mxGeometry x="620" y="190" width="170" height="100" as="geometry" />
        </mxCell>
        <mxCell id="d-P0U7Se0oW0T53Lc5zN-23" style="edgeStyle=orthogonalEdgeStyle;rounded=0;orthogonalLoop=1;jettySize=auto;html=1;exitX=1;exitY=0.5;exitDx=0;exitDy=0;entryX=0;entryY=0.5;entryDx=0;entryDy=0;fontSize=12;" edge="1" parent="1" source="d-P0U7Se0oW0T53Lc5zN-13" target="d-P0U7Se0oW0T53Lc5zN-22">
          <mxGeometry relative="1" as="geometry" />
        </mxCell>
        <mxCell id="d-P0U7Se0oW0T53Lc5zN-13" value="((Canada, Calgary), 40)&lt;br&gt;((US, Buffalo), 30)&lt;br&gt;((Canada, Edmonton), 35)&lt;br&gt;((Qatar, Doha), 110)&lt;br&gt;" style="rounded=0;whiteSpace=wrap;html=1;" vertex="1" parent="1">
          <mxGeometry x="620" y="300" width="170" height="90" as="geometry" />
        </mxCell>
        <mxCell id="d-P0U7Se0oW0T53Lc5zN-15" value="&lt;b&gt;Combiner&lt;/b&gt;" style="text;html=1;strokeColor=none;fillColor=none;align=center;verticalAlign=middle;whiteSpace=wrap;rounded=0;fontSize=12;" vertex="1" parent="1">
          <mxGeometry x="675" y="160" width="61" height="30" as="geometry" />
        </mxCell>
        <mxCell id="d-P0U7Se0oW0T53Lc5zN-20" value="&lt;b&gt;Partitioner&lt;/b&gt;" style="rounded=0;whiteSpace=wrap;html=1;" vertex="1" parent="1">
          <mxGeometry x="830" y="220" width="90" height="40" as="geometry" />
        </mxCell>
        <mxCell id="d-P0U7Se0oW0T53Lc5zN-22" value="&lt;b&gt;Partitioner&lt;/b&gt;" style="rounded=0;whiteSpace=wrap;html=1;" vertex="1" parent="1">
          <mxGeometry x="830" y="325" width="90" height="40" as="geometry" />
        </mxCell>
        <mxCell id="d-P0U7Se0oW0T53Lc5zN-39" value="" style="edgeStyle=orthogonalEdgeStyle;rounded=0;orthogonalLoop=1;jettySize=auto;html=1;fontSize=12;" edge="1" parent="1" source="d-P0U7Se0oW0T53Lc5zN-24" target="d-P0U7Se0oW0T53Lc5zN-38">
          <mxGeometry relative="1" as="geometry" />
        </mxCell>
        <mxCell id="d-P0U7Se0oW0T53Lc5zN-24" value="&lt;b&gt;Reduce&lt;/b&gt;" style="rounded=0;whiteSpace=wrap;html=1;" vertex="1" parent="1">
          <mxGeometry x="970" y="170" width="90" height="40" as="geometry" />
        </mxCell>
        <mxCell id="d-P0U7Se0oW0T53Lc5zN-41" value="" style="edgeStyle=orthogonalEdgeStyle;rounded=0;orthogonalLoop=1;jettySize=auto;html=1;fontSize=12;" edge="1" parent="1" source="d-P0U7Se0oW0T53Lc5zN-25" target="d-P0U7Se0oW0T53Lc5zN-40">
          <mxGeometry relative="1" as="geometry" />
        </mxCell>
        <mxCell id="d-P0U7Se0oW0T53Lc5zN-25" value="&lt;b&gt;Reduce&lt;/b&gt;" style="rounded=0;whiteSpace=wrap;html=1;" vertex="1" parent="1">
          <mxGeometry x="970" y="230" width="90" height="40" as="geometry" />
        </mxCell>
        <mxCell id="d-P0U7Se0oW0T53Lc5zN-43" value="" style="edgeStyle=orthogonalEdgeStyle;rounded=0;orthogonalLoop=1;jettySize=auto;html=1;fontSize=12;" edge="1" parent="1" source="d-P0U7Se0oW0T53Lc5zN-26" target="d-P0U7Se0oW0T53Lc5zN-42">
          <mxGeometry relative="1" as="geometry" />
        </mxCell>
        <mxCell id="d-P0U7Se0oW0T53Lc5zN-26" value="&lt;b&gt;Reduce&lt;/b&gt;" style="rounded=0;whiteSpace=wrap;html=1;" vertex="1" parent="1">
          <mxGeometry x="970" y="290" width="90" height="40" as="geometry" />
        </mxCell>
        <mxCell id="d-P0U7Se0oW0T53Lc5zN-45" value="" style="edgeStyle=orthogonalEdgeStyle;rounded=0;orthogonalLoop=1;jettySize=auto;html=1;fontSize=12;" edge="1" parent="1" source="d-P0U7Se0oW0T53Lc5zN-27" target="d-P0U7Se0oW0T53Lc5zN-44">
          <mxGeometry relative="1" as="geometry" />
        </mxCell>
        <mxCell id="d-P0U7Se0oW0T53Lc5zN-27" value="&lt;b&gt;Reduce&lt;/b&gt;" style="rounded=0;whiteSpace=wrap;html=1;" vertex="1" parent="1">
          <mxGeometry x="970" y="350" width="90" height="40" as="geometry" />
        </mxCell>
        <mxCell id="d-P0U7Se0oW0T53Lc5zN-29" value="" style="endArrow=classic;html=1;rounded=0;fontSize=12;exitX=1;exitY=0.5;exitDx=0;exitDy=0;entryX=0;entryY=0.75;entryDx=0;entryDy=0;" edge="1" parent="1" source="d-P0U7Se0oW0T53Lc5zN-22" target="d-P0U7Se0oW0T53Lc5zN-27">
          <mxGeometry width="50" height="50" relative="1" as="geometry">
            <mxPoint x="940" y="280" as="sourcePoint" />
            <mxPoint x="990" y="230" as="targetPoint" />
          </mxGeometry>
        </mxCell>
        <mxCell id="d-P0U7Se0oW0T53Lc5zN-31" value="" style="endArrow=classic;html=1;rounded=0;fontSize=12;exitX=1;exitY=0.5;exitDx=0;exitDy=0;entryX=0;entryY=0.75;entryDx=0;entryDy=0;" edge="1" parent="1" source="d-P0U7Se0oW0T53Lc5zN-22" target="d-P0U7Se0oW0T53Lc5zN-26">
          <mxGeometry width="50" height="50" relative="1" as="geometry">
            <mxPoint x="940" y="280" as="sourcePoint" />
            <mxPoint x="990" y="230" as="targetPoint" />
          </mxGeometry>
        </mxCell>
        <mxCell id="d-P0U7Se0oW0T53Lc5zN-32" value="" style="endArrow=classic;html=1;rounded=0;fontSize=12;exitX=1;exitY=0.5;exitDx=0;exitDy=0;" edge="1" parent="1" source="d-P0U7Se0oW0T53Lc5zN-22">
          <mxGeometry width="50" height="50" relative="1" as="geometry">
            <mxPoint x="940" y="280" as="sourcePoint" />
            <mxPoint x="970" y="260" as="targetPoint" />
          </mxGeometry>
        </mxCell>
        <mxCell id="d-P0U7Se0oW0T53Lc5zN-33" value="" style="endArrow=classic;html=1;rounded=0;fontSize=12;exitX=1;exitY=0.5;exitDx=0;exitDy=0;entryX=0;entryY=0.75;entryDx=0;entryDy=0;" edge="1" parent="1" source="d-P0U7Se0oW0T53Lc5zN-22" target="d-P0U7Se0oW0T53Lc5zN-24">
          <mxGeometry width="50" height="50" relative="1" as="geometry">
            <mxPoint x="940" y="280" as="sourcePoint" />
            <mxPoint x="990" y="230" as="targetPoint" />
          </mxGeometry>
        </mxCell>
        <mxCell id="d-P0U7Se0oW0T53Lc5zN-34" value="" style="endArrow=classic;html=1;rounded=0;fontSize=12;exitX=1;exitY=0.5;exitDx=0;exitDy=0;entryX=0;entryY=0.25;entryDx=0;entryDy=0;" edge="1" parent="1" source="d-P0U7Se0oW0T53Lc5zN-20" target="d-P0U7Se0oW0T53Lc5zN-24">
          <mxGeometry width="50" height="50" relative="1" as="geometry">
            <mxPoint x="940" y="280" as="sourcePoint" />
            <mxPoint x="990" y="230" as="targetPoint" />
          </mxGeometry>
        </mxCell>
        <mxCell id="d-P0U7Se0oW0T53Lc5zN-35" value="" style="endArrow=classic;html=1;rounded=0;fontSize=12;exitX=1;exitY=0.5;exitDx=0;exitDy=0;entryX=0;entryY=0.5;entryDx=0;entryDy=0;" edge="1" parent="1" source="d-P0U7Se0oW0T53Lc5zN-20" target="d-P0U7Se0oW0T53Lc5zN-25">
          <mxGeometry width="50" height="50" relative="1" as="geometry">
            <mxPoint x="940" y="280" as="sourcePoint" />
            <mxPoint x="990" y="230" as="targetPoint" />
          </mxGeometry>
        </mxCell>
        <mxCell id="d-P0U7Se0oW0T53Lc5zN-36" value="" style="endArrow=classic;html=1;rounded=0;fontSize=12;exitX=1;exitY=0.5;exitDx=0;exitDy=0;entryX=0;entryY=0.5;entryDx=0;entryDy=0;" edge="1" parent="1" source="d-P0U7Se0oW0T53Lc5zN-20" target="d-P0U7Se0oW0T53Lc5zN-26">
          <mxGeometry width="50" height="50" relative="1" as="geometry">
            <mxPoint x="940" y="280" as="sourcePoint" />
            <mxPoint x="990" y="230" as="targetPoint" />
          </mxGeometry>
        </mxCell>
        <mxCell id="d-P0U7Se0oW0T53Lc5zN-37" value="" style="endArrow=classic;html=1;rounded=0;fontSize=12;exitX=1;exitY=0.5;exitDx=0;exitDy=0;entryX=0;entryY=0.25;entryDx=0;entryDy=0;" edge="1" parent="1" source="d-P0U7Se0oW0T53Lc5zN-20" target="d-P0U7Se0oW0T53Lc5zN-27">
          <mxGeometry width="50" height="50" relative="1" as="geometry">
            <mxPoint x="940" y="280" as="sourcePoint" />
            <mxPoint x="990" y="230" as="targetPoint" />
          </mxGeometry>
        </mxCell>
        <mxCell id="d-P0U7Se0oW0T53Lc5zN-38" value="((Canada, Edmonton), 135)&lt;br&gt;((Canada, Calgary), 90)" style="rounded=0;whiteSpace=wrap;html=1;" vertex="1" parent="1">
          <mxGeometry x="1140" y="170" width="200" height="40" as="geometry" />
        </mxCell>
        <mxCell id="d-P0U7Se0oW0T53Lc5zN-40" value="((UK, London), 65)" style="rounded=0;whiteSpace=wrap;html=1;" vertex="1" parent="1">
          <mxGeometry x="1140" y="230" width="130" height="40" as="geometry" />
        </mxCell>
        <mxCell id="d-P0U7Se0oW0T53Lc5zN-42" value="((US, Buffalo), 30)" style="rounded=0;whiteSpace=wrap;html=1;" vertex="1" parent="1">
          <mxGeometry x="1140" y="290" width="130" height="40" as="geometry" />
        </mxCell>
        <mxCell id="d-P0U7Se0oW0T53Lc5zN-44" value="((Qatar, Doha), 110)" style="rounded=0;whiteSpace=wrap;html=1;" vertex="1" parent="1">
          <mxGeometry x="1140" y="350" width="130" height="40" as="geometry" />
        </mxCell>
        <mxCell id="d-P0U7Se0oW0T53Lc5zN-46" value="&lt;b&gt;Output&lt;/b&gt;" style="text;html=1;strokeColor=none;fillColor=none;align=center;verticalAlign=middle;whiteSpace=wrap;rounded=0;fontSize=12;" vertex="1" parent="1">
          <mxGeometry x="1200" y="139" width="61" height="30" as="geometry" />
        </mxCell>
      </root>
    </mxGraphModel>
  </diagram>
</mxfile>
